<svg width="88" height="88" viewBox="0 0 88 88" fill="none" xmlns="http://www.w3.org/2000/svg">
<path d="M67.375 0H20.625C9.23413 0 0 9.23413 0 20.625V67.375C0 78.7659 9.23413 88 20.625 88H67.375C78.7659 88 88 78.7659 88 67.375V20.625C88 9.23413 78.7659 0 67.375 0Z" fill="#242938"/>
<path d="M41.2081 10.6961C42.899 9.72848 45.101 9.72401 46.7902 10.6961C55.2884 15.4983 63.7893 20.2926 72.2861 25.0975C73.8846 25.9978 74.9533 27.7764 74.9371 29.6179V58.5083C74.9492 60.4261 73.7746 62.2473 72.0885 63.1269C63.6181 67.9027 55.1519 72.6839 46.683 77.4596C44.9577 78.4462 42.7113 78.3702 41.0393 77.3025C38.5 75.8306 35.9562 74.3655 33.4166 72.8949C32.8976 72.5856 32.3125 72.3394 31.9461 71.8362C32.2702 71.3996 32.8494 71.3453 33.32 71.1545C34.3798 70.8173 35.3536 70.2763 36.3271 69.7514C36.5736 69.5829 36.8741 69.6475 37.1102 69.7981C39.2817 71.0432 41.4342 72.3247 43.6129 73.5577C44.0777 73.8262 44.5483 73.4697 44.9457 73.2483C53.2575 68.5503 61.5797 63.8705 69.8906 59.1711C70.1986 59.0229 70.3687 58.696 70.3436 58.3588C70.3495 48.8283 70.345 39.2965 70.3467 29.7657C70.3818 29.3834 70.1604 29.0314 69.8142 28.8747C61.3735 24.121 52.9365 19.3604 44.4971 14.6056C44.3508 14.5051 44.1777 14.4512 44.0003 14.4509C43.8229 14.4506 43.6495 14.5039 43.5029 14.6039C35.0632 19.3604 26.6282 24.1258 18.1885 28.8788C17.8437 29.0359 17.6124 29.382 17.6533 29.7657C17.655 39.2965 17.6533 48.8283 17.6533 58.3602C17.6385 58.5248 17.6747 58.69 17.7568 58.8335C17.8389 58.977 17.9631 59.0918 18.1125 59.1625C20.3644 60.4395 22.6194 61.7076 24.8731 62.9805C26.1429 63.6635 27.7014 64.0699 29.1005 63.5463C30.3346 63.1036 31.1998 61.8437 31.1764 60.5334C31.1881 51.0586 31.1706 41.5824 31.185 32.1087C31.1541 31.6883 31.5531 31.3407 31.9622 31.3806C33.0443 31.373 34.1278 31.3658 35.21 31.3834C35.6616 31.373 35.9724 31.8261 35.9167 32.2496C35.9122 41.7845 35.9284 51.3195 35.9095 60.8541C35.9122 63.3954 34.8683 66.1605 32.5177 67.4039C29.6223 68.9037 26.0432 68.5857 23.1825 67.1474C20.7061 65.9113 18.3425 64.4524 15.9101 63.1283C14.2196 62.2535 13.0508 60.4251 13.0628 58.5087V29.6179C13.045 27.7382 14.1566 25.9274 15.8042 25.0401C24.2732 20.261 32.7408 15.4777 41.2081 10.6961Z" fill="#81CD39"/>
<path d="M48.5966 30.7089C52.2902 30.471 56.2444 30.568 59.5681 32.3878C62.1417 33.782 63.5683 36.7087 63.6137 39.5677C63.5418 39.953 63.1386 40.1658 62.7705 40.1394C61.699 40.138 60.6268 40.1541 59.5554 40.1321C59.1006 40.1497 58.8366 39.7306 58.7795 39.3288C58.4715 37.9607 57.7252 36.606 56.4379 35.946C54.4613 34.9566 52.1699 35.0065 50.0146 35.0271C48.4412 35.1103 46.7493 35.2468 45.4162 36.1718C44.3929 36.8727 44.0821 38.2876 44.4472 39.4271C44.7916 40.2452 45.7359 40.5092 46.509 40.7526C50.9602 41.9169 55.6772 41.8007 60.0435 43.3328C61.8513 43.9574 63.6195 45.1719 64.2383 47.0645C65.0478 49.6014 64.6931 52.6333 62.888 54.6697C61.4243 56.3455 59.2927 57.2578 57.1666 57.7531C54.3383 58.3839 51.403 58.4 48.5306 58.1199C45.8298 57.8119 43.0189 57.1024 40.9341 55.2623C39.1511 53.714 38.2803 51.3016 38.3666 48.9737C38.3872 48.5805 38.7788 48.3062 39.1555 48.3385C40.2346 48.3299 41.3139 48.3268 42.393 48.3402C42.8244 48.3093 43.1437 48.6819 43.1661 49.0882C43.3647 50.3914 43.8546 51.7595 44.9914 52.5319C47.1845 53.9471 49.9369 53.8502 52.4483 53.8897C54.5291 53.7976 56.8648 53.7697 58.5626 52.3944C59.4584 51.61 59.7238 50.2975 59.4818 49.1686C59.2195 48.2154 58.2223 47.7713 57.366 47.4808C52.9719 46.091 48.202 46.5953 43.8505 45.0234C42.0836 44.3991 40.3751 43.2187 39.6966 41.4037C38.7496 38.8348 39.1834 35.6572 41.1775 33.6899C43.1217 31.7323 45.9281 30.9784 48.5966 30.7089Z" fill="#81CD39"/>
</svg>
