<svg width="120" height="120" viewBox="0 0 120 120" fill="none" xmlns="http://www.w3.org/2000/svg">
<g clip-path="url(#clip0_9_8)">
<path d="M91.875 0H28.125C12.592 0 0 12.592 0 28.125V91.875C0 107.408 12.592 120 28.125 120H91.875C107.408 120 120 107.408 120 91.875V28.125C120 12.592 107.408 0 91.875 0Z" fill="#F4F2ED"/>
<path d="M56.9302 13.1503C56.7286 13.1686 56.0869 13.2328 55.5094 13.2783C42.1941 14.4787 29.7216 21.6637 21.8217 32.7066C17.4234 38.8467 14.6095 45.8114 13.5469 53.1891C13.1714 55.7644 13.1255 56.5252 13.1255 60.0164C13.1255 63.5081 13.1714 64.2689 13.5473 66.8437C16.0945 84.4481 28.6223 99.2395 45.6127 104.72C48.6553 105.7 51.8625 106.369 55.5098 106.772C56.9306 106.928 63.0703 106.928 64.4911 106.772C70.7869 106.076 76.1203 104.518 81.3806 101.833C82.1869 101.421 82.343 101.31 82.2328 101.219C82.1597 101.164 78.7228 96.5541 74.5992 90.9825L67.103 80.8561L57.7092 66.9539C52.5408 59.3109 48.2888 53.0606 48.2517 53.0606C48.2152 53.0517 48.1786 59.2284 48.1603 66.7706C48.1327 79.9762 48.1238 80.5078 47.9588 80.8191C47.7206 81.2681 47.5373 81.4514 47.152 81.6534C46.8591 81.7997 46.6022 81.8273 45.2184 81.8273H43.6331L43.2113 81.5616C42.9501 81.398 42.7379 81.1669 42.5972 80.8926L42.405 80.4801L42.4238 62.1061L42.4509 43.7227L42.735 43.365C42.8817 43.1728 43.1934 42.9253 43.4133 42.8062C43.7888 42.623 43.9355 42.6047 45.5208 42.6047C47.3906 42.6047 47.7019 42.6778 48.188 43.2094C48.3253 43.3561 53.4113 51.0173 59.4966 60.2456C65.6572 69.5864 71.8216 78.9247 77.9897 88.2605L85.4128 99.5053L85.7888 99.2578C89.115 97.095 92.6344 94.0158 95.4202 90.8081C101.349 83.9991 105.171 75.6966 106.454 66.8437C106.83 64.2689 106.875 63.5081 106.875 60.0164C106.875 56.5247 106.83 55.7644 106.454 53.1891C103.906 35.5847 91.3786 20.7937 74.3883 15.3136C71.3916 14.3419 68.2027 13.673 64.6284 13.2698C63.7486 13.178 57.6909 13.0776 56.9306 13.1508M76.1203 41.505C76.56 41.7248 76.9177 42.1462 77.0461 42.5859C77.1192 42.8245 77.1375 47.9198 77.1192 59.4023L77.0916 75.8798L74.1867 71.4258L71.2725 66.9722V54.9947C71.2725 47.2509 71.3091 42.8977 71.3639 42.6867C71.5106 42.1739 71.8313 41.7708 72.2714 41.5322C72.6469 41.34 72.7847 41.3212 74.2233 41.3212C75.5799 41.3212 75.818 41.34 76.1203 41.505Z" fill="black"/>
</g>
<defs>
<clipPath id="clip0_9_8">
<rect width="120" height="120" fill="white"/>
</clipPath>
</defs>
</svg>
