<svg width="100" height="100" viewBox="0 0 100 100" fill="none" xmlns="http://www.w3.org/2000/svg">
<path d="M76.5625 0H23.4375C10.4933 0 0 10.4933 0 23.4375V76.5625C0 89.5067 10.4933 100 23.4375 100H76.5625C89.5067 100 100 89.5067 100 76.5625V23.4375C100 10.4933 89.5067 0 76.5625 0Z" fill="#953CAD"/>
<path d="M76.3422 39.3234V44.5867H81.6055V39.3234H84.2371V44.5867H89.5V47.2183H84.2371V52.4812H89.5V55.1129H84.2371V60.3762H81.6055V55.1129H76.3422V60.3762H73.7106V55.1129H68.4477V52.4812H73.7106V47.2183H68.4477V44.5867H73.7106V39.3234H76.3422ZM81.6055 47.2183H76.3422V52.4812H81.6055V47.2183Z" fill="white"/>
<path d="M47.6566 12.8906C61.3844 12.8906 73.3703 20.3461 79.7898 31.4281L79.7273 31.3215L63.5754 40.6215C60.3934 35.2336 54.5594 31.5973 47.8672 31.5227L47.6566 31.5215C37.4512 31.5215 29.1777 39.7945 29.1777 49.9996C29.1747 53.2161 30.015 56.3772 31.6148 59.1676C34.8 64.7281 40.7875 68.4789 47.6566 68.4789C54.5676 68.4789 60.5894 64.6805 63.7586 59.0605L63.6816 59.1953L79.809 68.5383C73.4598 79.5266 61.6383 86.959 48.0699 87.107L47.6566 87.1094C33.8852 87.1094 21.8652 79.6078 15.4617 68.4672C12.3355 63.0285 10.5469 56.7234 10.5469 49.9996C10.5469 29.5051 27.1609 12.8906 47.6566 12.8906Z" fill="white"/>
</svg>
